PathFileType	4	(X/Y/Z)	C:/Users/opensim2020/Desktop/walking_exp_matlab/subject03_walking10_straight_04.trc	
DataRate	CameraRate	NumFrames	NumMarkers	Units	OrigDataRate	OrigDataStartFrame	OrigNumFrames	
100.00	100.00	7	45	mm	100.00	4061	317	
Frame#	Time	LFHD			RFHD			LBHD			RBHD			C7			T10			CLAV			STRN			RBAK			LSHO			LUPA			LELB			LFRM			LWRA			LWRB			LFIN			RSHO			RUPA			RELB			RFRM			RWRA			RWRB			RFIN			LASI			RASI			LPSI			RPSI			LTHI			LKNE			LTIB			LANK			LHEE			LTOE			RTHI			RKNE			RTIB			RANK			RHEE			RTOE			*39			*40			*41			*42			*43			*44			
		X1	Y1	Z1	X2	Y2	Z2	X3	Y3	Z3	X4	Y4	Z4	X5	Y5	Z5	X6	Y6	Z6	X7	Y7	Z7	X8	Y8	Z8	X9	Y9	Z9	X10	Y10	Z10	X11	Y11	Z11	X12	Y12	Z12	X13	Y13	Z13	X14	Y14	Z14	X15	Y15	Z15	X16	Y16	Z16	X17	Y17	Z17	X18	Y18	Z18	X19	Y19	Z19	X20	Y20	Z20	X21	Y21	Z21	X22	Y22	Z22	X23	Y23	Z23	X24	Y24	Z24	X25	Y25	Z25	X26	Y26	Z26	X27	Y27	Z27	X28	Y28	Z28	X29	Y29	Z29	X30	Y30	Z30	X31	Y31	Z31	X32	Y32	Z32	X33	Y33	Z33	X34	Y34	Z34	X35	Y35	Z35	X36	Y36	Z36	X37	Y37	Z37	X38	Y38	Z38	X39	Y39	Z39	X40	Y40	Z40	X41	Y41	Z41	X42	Y42	Z42	X43	Y43	Z43	X44	Y44	Z44	X45	Y45	Z45	

238	2.370	-959.96655	-680.01062	1622.13647	-1092.73938	-671.77460	1619.39551	-954.72919	-553.34937	1575.21741	-1085.39233	-550.04626	1572.21411	-1011.37036	-522.16425	1412.76270	-1014.23029	-500.57657	1097.08643	-1005.47314	-644.81476	1338.68689	-995.99658	-693.19208	1175.72473	-1109.05139	-478.80548	1233.90918	-851.97186	-594.04041	1373.55383	-784.05658	-594.32123	1174.23511	-775.04218	-606.68945	1051.13416	-776.24432	-638.09247	924.50500	-806.83881	-663.12231	807.79419	-756.42017	-638.24268	811.30518	-768.92303	-652.34900	726.97864	-1168.39563	-607.67664	1358.31201	-1242.14160	-619.52576	1136.49658	-1256.71582	-641.73102	1025.90881	-1257.65723	-671.01880	892.01422	-1221.24976	-710.27881	801.09052	-1265.57764	-679.84869	792.09686	-1253.82861	-709.29895	723.59363	-888.62732	-658.76703	930.75763	-1125.97705	-678.67548	943.26721	-951.22430	-501.87759	954.43872	-1098.93567	-514.87274	972.42004	-833.55908	-603.41541	629.48334	-846.43756	-615.43262	449.89709	-858.27026	-461.05341	325.58218	-907.37866	-315.85535	180.96730	-953.18518	-268.88138	185.78822	-913.07489	-383.15567	47.41782	-1167.20984	-636.66370	647.64880	-1126.33813	-658.56122	469.08176	-1125.72595	-622.25500	281.56754	-1070.37634	-608.00372	66.85719	-1018.98474	-564.06573	35.81850	-1051.26221	-750.66290	31.30004																		 
239	2.380	-960.27582	-686.83447	1622.05188	-1093.01563	-678.97809	1619.24268	-955.71680	-560.07751	1574.77393	-1086.05847	-557.39795	1571.68030	-1012.32751	-529.39014	1412.94360	-1015.05579	-506.90558	1097.12732	-1005.83423	-651.70496	1338.34155	-996.35498	-699.69708	1175.28992	-1110.11743	-485.74402	1234.10815	-852.43146	-600.23285	1373.15210	-784.34009	-599.30713	1173.71790	-775.32666	-611.05206	1050.59290	-776.33130	-641.26581	923.58368	-806.44116	-664.99261	806.58337	-756.15955	-640.04749	810.45502	-767.87500	-653.81158	726.20306	-1168.91443	-615.60577	1358.03674	-1242.90051	-629.06323	1136.40771	-1257.82837	-652.06201	1026.03577	-1259.01050	-681.96869	892.27032	-1222.60620	-721.14325	801.32629	-1267.41809	-691.32654	792.45178	-1255.93164	-721.29895	724.30560	-889.28479	-665.13226	930.75745	-1126.74780	-685.48364	943.35388	-952.38214	-508.08096	953.78253	-1099.88245	-521.51563	971.99622	-833.93671	-614.11206	629.63757	-845.91278	-630.41205	450.43192	-858.10419	-476.49051	326.39270	-907.20013	-331.16937	181.65845	-953.02222	-284.04770	185.75757	-911.45728	-399.99222	48.96073	-1167.59009	-642.81891	647.44653	-1126.42175	-663.01514	468.79413	-1125.81445	-625.14154	281.40741	-1070.21130	-608.34290	66.96702	-1018.94464	-564.13086	36.01364	-1051.16565	-750.83081	31.24382																		 
240	2.390	-960.42773	-693.69653	1621.98804	-1093.27490	-686.25555	1619.10767	-955.91602	-567.26508	1574.40723	-1086.59656	-564.67450	1571.31445	-1013.28937	-536.32269	1413.02441	-1016.01404	-513.31238	1097.24548	-1006.21045	-658.64941	1338.13123	-996.69525	-706.09741	1174.93372	-1111.09717	-492.66232	1234.36633	-852.93658	-606.40100	1372.94312	-784.61182	-604.21802	1173.36060	-775.59485	-615.08820	1050.29712	-776.46057	-644.45978	923.01917	-806.94623	-665.80164	805.09430	-755.74274	-642.29803	810.02954	-766.84607	-655.58899	725.81903	-1169.23340	-623.27832	1357.85413	-1243.49097	-638.61511	1136.51172	-1258.41748	-662.52533	1026.37231	-1260.23816	-692.88776	892.73364	-1224.02942	-732.08649	801.69574	-1269.12109	-702.64081	793.05457	-1258.03040	-733.17584	725.16577	-889.99048	-671.44293	931.06262	-1127.45203	-692.10663	943.30072	-953.38263	-514.44434	953.42657	-1100.89893	-528.10461	971.56036	-834.41400	-625.32507	629.93506	-845.51373	-645.14752	451.13394	-858.01868	-492.32721	326.62115	-906.84552	-347.37735	181.44994	-952.65857	-299.80499	184.75826	-910.49377	-418.11319	49.93391	-1167.91833	-648.80078	647.20679	-1126.48059	-667.52069	468.44748	-1125.81812	-627.98395	281.26947	-1070.49792	-608.35986	67.39268	-1018.91602	-564.18677	36.24234	-1051.09229	-750.96063	31.23175																		 
241	2.400	-960.56439	-700.57629	1621.91223	-1093.41345	-693.52417	1618.97925	-956.42773	-574.18536	1574.18298	-1087.19189	-572.02600	1571.02869	-1013.97406	-543.31140	1413.09131	-1016.99634	-519.53076	1097.40393	-1006.51501	-665.45142	1337.94360	-997.05066	-712.43329	1174.63867	-1112.01086	-499.51498	1234.69275	-853.42041	-612.50586	1372.88074	-785.37445	-607.79663	1173.35742	-775.83484	-619.16443	1050.19971	-776.54871	-647.65320	922.76221	-806.25354	-668.43231	805.05627	-755.22540	-644.94427	810.04059	-765.89355	-657.65039	725.68457	-1169.61707	-630.99481	1357.99597	-1243.88611	-648.03229	1136.83289	-1258.99487	-672.90625	1026.93384	-1261.37732	-703.75702	893.40955	-1225.41809	-742.91791	802.29089	-1270.85291	-713.99133	793.84216	-1260.14160	-744.90326	726.24469	-890.73199	-677.83966	931.59369	-1128.18042	-698.71039	943.21997	-954.54456	-520.56073	953.36682	-1101.92432	-534.76636	971.14832	-835.45367	-635.48688	630.12292	-845.68622	-659.86414	452.02115	-857.99084	-508.55682	326.22247	-906.59546	-364.16080	180.44585	-952.20923	-316.11792	182.67195	-910.14862	-437.65546	50.61010	-1168.10083	-654.64502	646.87860	-1126.59607	-672.05151	468.06281	-1125.84204	-630.69543	281.12897	-1070.42358	-608.86450	67.32759	-1018.88965	-564.24817	36.48071	-1051.05066	-751.07623	31.15839	-1012.50201	-613.82727	1676.68140															 
242	2.410	-960.63177	-707.45654	1621.82446	-1093.52429	-700.83575	1618.87524	-956.99500	-580.99884	1574.15039	-1087.59375	-579.30896	1570.90198	-1014.69623	-550.24414	1413.13562	-1017.85602	-525.83344	1097.55713	-1006.75555	-672.19751	1337.82910	-997.43219	-718.65869	1174.41711	-1112.94214	-506.32339	1235.12537	-853.92010	-618.61029	1372.94910	-785.64581	-612.25372	1173.51196	-775.96765	-622.74225	1050.14807	-776.56384	-650.80450	922.69489	-806.04199	-670.62958	804.83911	-754.93457	-647.41284	810.16687	-764.92212	-660.24890	725.87836	-1169.96594	-638.27405	1358.15967	-1244.20374	-657.34180	1137.26013	-1259.33020	-683.20691	1027.65723	-1262.43726	-714.59100	894.31030	-1226.73499	-753.75726	803.09949	-1272.50989	-725.22357	794.92999	-1262.25964	-756.51343	727.43195	-891.49188	-684.11658	932.26520	-1128.92993	-705.30841	943.13190	-955.45599	-527.04779	953.21857	-1102.95068	-541.39056	970.82819	-835.65247	-647.51715	630.88977	-846.04468	-674.73761	453.00165	-858.00775	-524.99011	325.44751	-906.31232	-381.77051	178.58557	-951.55792	-333.00616	179.44461	-910.34351	-458.73648	50.88577	-1168.92493	-659.99695	646.95605	-1126.58972	-676.21985	467.71225	-1125.86963	-633.24884	281.03836	-1070.29016	-609.07941	67.51060	-1018.77423	-564.36603	36.77693	-1050.98889	-751.20917	31.12854																		 
243	2.420	-960.62421	-714.39075	1621.75745	-1093.58423	-708.19196	1618.85547	-957.75232	-587.68884	1574.22351	-1088.04346	-586.63483	1570.96741	-1015.29706	-556.90948	1413.35706	-1018.93933	-532.03284	1097.72437	-1006.98138	-678.91412	1337.81323	-997.75366	-724.85681	1174.24377	-1113.90454	-513.18750	1235.57544	-854.37775	-624.75897	1373.14197	-785.93280	-616.59344	1173.78992	-776.02563	-626.86285	1050.58801	-776.47906	-653.89880	922.82654	-805.75751	-673.15302	804.82739	-754.67755	-650.00732	810.46179	-763.91058	-663.28290	726.30591	-1170.22937	-645.56561	1358.49219	-1244.45593	-666.45673	1137.84949	-1259.65662	-693.32391	1028.56860	-1263.40564	-725.34344	895.43445	-1228.15601	-764.69489	804.05682	-1274.02515	-736.33356	796.11151	-1264.30029	-767.90210	728.75989	-892.11609	-690.63770	933.12445	-1129.63000	-711.82434	943.03827	-956.38965	-533.30762	953.47028	-1103.89612	-547.90588	970.57751	-836.38861	-658.64630	631.45190	-846.73987	-689.26776	453.96857	-858.21442	-541.64203	324.36868	-906.09229	-400.05759	175.68945	-950.96271	-350.54132	175.21960	-911.02588	-480.88873	50.69608	-1168.42334	-666.08649	646.33228	-1126.72620	-680.37524	467.35315	-1125.94934	-635.58459	280.95724	-1070.31555	-609.21942	67.73398	-1018.89777	-564.30981	37.01797	-1050.97888	-751.27631	31.07804	-1012.13904	-628.37189	1676.24548															 
244	2.430	-960.44855	-721.26685	1621.73682	-1093.57019	-715.50574	1618.85522	-958.09106	-594.53839	1574.33411	-1088.39941	-593.88831	1571.16003	-1015.82623	-563.70221	1413.50671	-1019.88696	-538.25159	1098.14368	-1007.20605	-685.51971	1337.85974	-998.06494	-731.09448	1174.21326	-1114.77271	-520.00403	1236.08423	-854.79773	-630.86694	1373.41956	-786.18933	-620.91174	1174.19275	-776.02325	-630.28015	1050.90222	-776.39246	-657.14160	923.13776	-805.47131	-675.93170	805.04858	-754.62433	-652.44299	810.74261	-763.45813	-665.49548	726.75403	-1170.51123	-652.89648	1359.01965	-1244.65503	-675.41437	1138.53625	-1260.00378	-703.22992	1029.59302	-1264.31018	-735.94092	896.65900	-1229.55371	-775.61932	805.30481	-1275.47668	-747.37311	797.47327	-1266.20789	-779.24774	730.16754	-892.83051	-696.91046	933.92700	-1130.29944	-718.25507	942.88159	-957.16022	-539.61121	953.70514	-1104.73975	-554.40936	970.39185	-837.30902	-669.64093	632.25800	-847.96613	-703.78369	455.33780	-858.58228	-558.57233	323.00906	-905.81848	-419.11908	171.97404	-950.33191	-368.86612	170.03395	-912.21167	-504.23660	50.26608	-1169.24011	-671.28491	646.42267	-1126.78479	-684.26398	467.01718	-1126.02051	-637.88086	280.88937	-1070.31006	-609.46796	67.90595	-1018.77521	-564.57513	37.44591	-1050.98572	-751.33508	31.03556	-1012.39020	-635.54089	1676.42883															 
